<svg width="10" height="10" viewBox="0 0 10 10" fill="none" xmlns="http://www.w3.org/2000/svg">
<path fill-rule="evenodd" clip-rule="evenodd" d="M2.90367 1.02882C2.9327 0.999718 2.96718 0.976629 3.00515 0.960875C3.04311 0.945121 3.08381 0.937012 3.12492 0.937012C3.16602 0.937012 3.20672 0.945121 3.24469 0.960875C3.28265 0.976629 3.31714 0.999718 3.34617 1.02882L7.09617 4.77882C7.12527 4.80785 7.14836 4.84233 7.16411 4.8803C7.17987 4.91827 7.18797 4.95897 7.18797 5.00007C7.18797 5.04118 7.17987 5.08188 7.16411 5.11984C7.14836 5.15781 7.12527 5.19229 7.09617 5.22132L3.34617 8.97132C3.28749 9.03 3.2079 9.06297 3.12492 9.06297C3.04193 9.06297 2.96235 9.03 2.90367 8.97132C2.84499 8.91264 2.81202 8.83306 2.81202 8.75007C2.81202 8.66709 2.84499 8.5875 2.90367 8.52882L6.43304 5.00007L2.90367 1.47132C2.87457 1.44229 2.85148 1.40781 2.83572 1.36984C2.81997 1.33188 2.81186 1.29117 2.81186 1.25007C2.81186 1.20897 2.81997 1.16827 2.83572 1.1303C2.85148 1.09233 2.87457 1.05785 2.90367 1.02882Z" fill="black"/>
</svg>
